<svg xmlns="http://www.w3.org/2000/svg" xmlns:xlink="http://www.w3.org/1999/xlink" width="1200" height="2270" viewBox="0 0 1200 2270">
  <defs>
    <clipPath id="clip-path">
      <rect width="1200" height="2270" fill="none"/>
    </clipPath>
    <clipPath id="clip-Mainpage_4">
      <rect width="1200" height="2270"/>
    </clipPath>
  </defs>
  <g id="Mainpage_4" data-name="Mainpage – 4" clip-path="url(#clip-Mainpage_4)">
    <rect width="1200" height="2270" fill="#fff"/>
    <g id="반복_그리드_1" data-name="반복 그리드 1" clip-path="url(#clip-path)">
      <g transform="translate(0 -23.5)">
        <line id="선_1" data-name="선 1" x2="1200" transform="translate(0 24)" fill="none" stroke="#707070" stroke-width="1"/>
      </g>
      <g transform="translate(0 -1.5)">
        <line id="선_1-2" data-name="선 1" x2="1200" transform="translate(0 24)" fill="none" stroke="#707070" stroke-width="1"/>
      </g>
      <g transform="translate(0 20.5)">
        <line id="선_1-3" data-name="선 1" x2="1200" transform="translate(0 24)" fill="none" stroke="#707070" stroke-width="1"/>
      </g>
      <g transform="translate(0 42.5)">
        <line id="선_1-4" data-name="선 1" x2="1200" transform="translate(0 24)" fill="none" stroke="#707070" stroke-width="1"/>
      </g>
      <g transform="translate(0 64.5)">
        <line id="선_1-5" data-name="선 1" x2="1200" transform="translate(0 24)" fill="none" stroke="#707070" stroke-width="1"/>
      </g>
      <g transform="translate(0 86.5)">
        <line id="선_1-6" data-name="선 1" x2="1200" transform="translate(0 24)" fill="none" stroke="#707070" stroke-width="1"/>
      </g>
      <g transform="translate(0 108.5)">
        <line id="선_1-7" data-name="선 1" x2="1200" transform="translate(0 24)" fill="none" stroke="#707070" stroke-width="1"/>
      </g>
      <g transform="translate(0 130.5)">
        <line id="선_1-8" data-name="선 1" x2="1200" transform="translate(0 24)" fill="none" stroke="#707070" stroke-width="1"/>
      </g>
      <g transform="translate(0 152.5)">
        <line id="선_1-9" data-name="선 1" x2="1200" transform="translate(0 24)" fill="none" stroke="#707070" stroke-width="1"/>
      </g>
      <g transform="translate(0 174.5)">
        <line id="선_1-10" data-name="선 1" x2="1200" transform="translate(0 24)" fill="none" stroke="#707070" stroke-width="1"/>
      </g>
      <g transform="translate(0 196.5)">
        <line id="선_1-11" data-name="선 1" x2="1200" transform="translate(0 24)" fill="none" stroke="#707070" stroke-width="1"/>
      </g>
      <g transform="translate(0 218.5)">
        <line id="선_1-12" data-name="선 1" x2="1200" transform="translate(0 24)" fill="none" stroke="#707070" stroke-width="1"/>
      </g>
      <g transform="translate(0 240.5)">
        <line id="선_1-13" data-name="선 1" x2="1200" transform="translate(0 24)" fill="none" stroke="#707070" stroke-width="1"/>
      </g>
      <g transform="translate(0 262.5)">
        <line id="선_1-14" data-name="선 1" x2="1200" transform="translate(0 24)" fill="none" stroke="#707070" stroke-width="1"/>
      </g>
      <g transform="translate(0 284.5)">
        <line id="선_1-15" data-name="선 1" x2="1200" transform="translate(0 24)" fill="none" stroke="#707070" stroke-width="1"/>
      </g>
      <g transform="translate(0 306.5)">
        <line id="선_1-16" data-name="선 1" x2="1200" transform="translate(0 24)" fill="none" stroke="#707070" stroke-width="1"/>
      </g>
      <g transform="translate(0 328.5)">
        <line id="선_1-17" data-name="선 1" x2="1200" transform="translate(0 24)" fill="none" stroke="#707070" stroke-width="1"/>
      </g>
      <g transform="translate(0 350.5)">
        <line id="선_1-18" data-name="선 1" x2="1200" transform="translate(0 24)" fill="none" stroke="#707070" stroke-width="1"/>
      </g>
      <g transform="translate(0 372.5)">
        <line id="선_1-19" data-name="선 1" x2="1200" transform="translate(0 24)" fill="none" stroke="#707070" stroke-width="1"/>
      </g>
      <g transform="translate(0 394.5)">
        <line id="선_1-20" data-name="선 1" x2="1200" transform="translate(0 24)" fill="none" stroke="#707070" stroke-width="1"/>
      </g>
      <g transform="translate(0 416.5)">
        <line id="선_1-21" data-name="선 1" x2="1200" transform="translate(0 24)" fill="none" stroke="#707070" stroke-width="1"/>
      </g>
      <g transform="translate(0 438.5)">
        <line id="선_1-22" data-name="선 1" x2="1200" transform="translate(0 24)" fill="none" stroke="#707070" stroke-width="1"/>
      </g>
      <g transform="translate(0 460.5)">
        <line id="선_1-23" data-name="선 1" x2="1200" transform="translate(0 24)" fill="none" stroke="#707070" stroke-width="1"/>
      </g>
      <g transform="translate(0 482.5)">
        <line id="선_1-24" data-name="선 1" x2="1200" transform="translate(0 24)" fill="none" stroke="#707070" stroke-width="1"/>
      </g>
      <g transform="translate(0 504.5)">
        <line id="선_1-25" data-name="선 1" x2="1200" transform="translate(0 24)" fill="none" stroke="#707070" stroke-width="1"/>
      </g>
      <g transform="translate(0 526.5)">
        <line id="선_1-26" data-name="선 1" x2="1200" transform="translate(0 24)" fill="none" stroke="#707070" stroke-width="1"/>
      </g>
      <g transform="translate(0 548.5)">
        <line id="선_1-27" data-name="선 1" x2="1200" transform="translate(0 24)" fill="none" stroke="#707070" stroke-width="1"/>
      </g>
      <g transform="translate(0 570.5)">
        <line id="선_1-28" data-name="선 1" x2="1200" transform="translate(0 24)" fill="none" stroke="#707070" stroke-width="1"/>
      </g>
      <g transform="translate(0 592.5)">
        <line id="선_1-29" data-name="선 1" x2="1200" transform="translate(0 24)" fill="none" stroke="#707070" stroke-width="1"/>
      </g>
      <g transform="translate(0 614.5)">
        <line id="선_1-30" data-name="선 1" x2="1200" transform="translate(0 24)" fill="none" stroke="#707070" stroke-width="1"/>
      </g>
      <g transform="translate(0 636.5)">
        <line id="선_1-31" data-name="선 1" x2="1200" transform="translate(0 24)" fill="none" stroke="#707070" stroke-width="1"/>
      </g>
      <g transform="translate(0 658.5)">
        <line id="선_1-32" data-name="선 1" x2="1200" transform="translate(0 24)" fill="none" stroke="#707070" stroke-width="1"/>
      </g>
      <g transform="translate(0 680.5)">
        <line id="선_1-33" data-name="선 1" x2="1200" transform="translate(0 24)" fill="none" stroke="#707070" stroke-width="1"/>
      </g>
      <g transform="translate(0 702.5)">
        <line id="선_1-34" data-name="선 1" x2="1200" transform="translate(0 24)" fill="none" stroke="#707070" stroke-width="1"/>
      </g>
      <g transform="translate(0 724.5)">
        <line id="선_1-35" data-name="선 1" x2="1200" transform="translate(0 24)" fill="none" stroke="#707070" stroke-width="1"/>
      </g>
      <g transform="translate(0 746.5)">
        <line id="선_1-36" data-name="선 1" x2="1200" transform="translate(0 24)" fill="none" stroke="#707070" stroke-width="1"/>
      </g>
      <g transform="translate(0 768.5)">
        <line id="선_1-37" data-name="선 1" x2="1200" transform="translate(0 24)" fill="none" stroke="#707070" stroke-width="1"/>
      </g>
      <g transform="translate(0 790.5)">
        <line id="선_1-38" data-name="선 1" x2="1200" transform="translate(0 24)" fill="none" stroke="#707070" stroke-width="1"/>
      </g>
      <g transform="translate(0 812.5)">
        <line id="선_1-39" data-name="선 1" x2="1200" transform="translate(0 24)" fill="none" stroke="#707070" stroke-width="1"/>
      </g>
      <g transform="translate(0 834.5)">
        <line id="선_1-40" data-name="선 1" x2="1200" transform="translate(0 24)" fill="none" stroke="#707070" stroke-width="1"/>
      </g>
      <g transform="translate(0 856.5)">
        <line id="선_1-41" data-name="선 1" x2="1200" transform="translate(0 24)" fill="none" stroke="#707070" stroke-width="1"/>
      </g>
      <g transform="translate(0 878.5)">
        <line id="선_1-42" data-name="선 1" x2="1200" transform="translate(0 24)" fill="none" stroke="#707070" stroke-width="1"/>
      </g>
      <g transform="translate(0 900.5)">
        <line id="선_1-43" data-name="선 1" x2="1200" transform="translate(0 24)" fill="none" stroke="#707070" stroke-width="1"/>
      </g>
      <g transform="translate(0 922.5)">
        <line id="선_1-44" data-name="선 1" x2="1200" transform="translate(0 24)" fill="none" stroke="#707070" stroke-width="1"/>
      </g>
      <g transform="translate(0 944.5)">
        <line id="선_1-45" data-name="선 1" x2="1200" transform="translate(0 24)" fill="none" stroke="#707070" stroke-width="1"/>
      </g>
      <g transform="translate(0 966.5)">
        <line id="선_1-46" data-name="선 1" x2="1200" transform="translate(0 24)" fill="none" stroke="#707070" stroke-width="1"/>
      </g>
      <g transform="translate(0 988.5)">
        <line id="선_1-47" data-name="선 1" x2="1200" transform="translate(0 24)" fill="none" stroke="#707070" stroke-width="1"/>
      </g>
      <g transform="translate(0 1010.5)">
        <line id="선_1-48" data-name="선 1" x2="1200" transform="translate(0 24)" fill="none" stroke="#707070" stroke-width="1"/>
      </g>
      <g transform="translate(0 1032.5)">
        <line id="선_1-49" data-name="선 1" x2="1200" transform="translate(0 24)" fill="none" stroke="#707070" stroke-width="1"/>
      </g>
      <g transform="translate(0 1054.5)">
        <line id="선_1-50" data-name="선 1" x2="1200" transform="translate(0 24)" fill="none" stroke="#707070" stroke-width="1"/>
      </g>
      <g transform="translate(0 1076.5)">
        <line id="선_1-51" data-name="선 1" x2="1200" transform="translate(0 24)" fill="none" stroke="#707070" stroke-width="1"/>
      </g>
      <g transform="translate(0 1098.5)">
        <line id="선_1-52" data-name="선 1" x2="1200" transform="translate(0 24)" fill="none" stroke="#707070" stroke-width="1"/>
      </g>
      <g transform="translate(0 1120.5)">
        <line id="선_1-53" data-name="선 1" x2="1200" transform="translate(0 24)" fill="none" stroke="#707070" stroke-width="1"/>
      </g>
      <g transform="translate(0 1142.5)">
        <line id="선_1-54" data-name="선 1" x2="1200" transform="translate(0 24)" fill="none" stroke="#707070" stroke-width="1"/>
      </g>
      <g transform="translate(0 1164.5)">
        <line id="선_1-55" data-name="선 1" x2="1200" transform="translate(0 24)" fill="none" stroke="#707070" stroke-width="1"/>
      </g>
      <g transform="translate(0 1186.5)">
        <line id="선_1-56" data-name="선 1" x2="1200" transform="translate(0 24)" fill="none" stroke="#707070" stroke-width="1"/>
      </g>
      <g transform="translate(0 1208.5)">
        <line id="선_1-57" data-name="선 1" x2="1200" transform="translate(0 24)" fill="none" stroke="#707070" stroke-width="1"/>
      </g>
      <g transform="translate(0 1230.5)">
        <line id="선_1-58" data-name="선 1" x2="1200" transform="translate(0 24)" fill="none" stroke="#707070" stroke-width="1"/>
      </g>
      <g transform="translate(0 1252.5)">
        <line id="선_1-59" data-name="선 1" x2="1200" transform="translate(0 24)" fill="none" stroke="#707070" stroke-width="1"/>
      </g>
      <g transform="translate(0 1274.5)">
        <line id="선_1-60" data-name="선 1" x2="1200" transform="translate(0 24)" fill="none" stroke="#707070" stroke-width="1"/>
      </g>
      <g transform="translate(0 1296.5)">
        <line id="선_1-61" data-name="선 1" x2="1200" transform="translate(0 24)" fill="none" stroke="#707070" stroke-width="1"/>
      </g>
      <g transform="translate(0 1318.5)">
        <line id="선_1-62" data-name="선 1" x2="1200" transform="translate(0 24)" fill="none" stroke="#707070" stroke-width="1"/>
      </g>
      <g transform="translate(0 1340.5)">
        <line id="선_1-63" data-name="선 1" x2="1200" transform="translate(0 24)" fill="none" stroke="#707070" stroke-width="1"/>
      </g>
      <g transform="translate(0 1362.5)">
        <line id="선_1-64" data-name="선 1" x2="1200" transform="translate(0 24)" fill="none" stroke="#707070" stroke-width="1"/>
      </g>
      <g transform="translate(0 1384.5)">
        <line id="선_1-65" data-name="선 1" x2="1200" transform="translate(0 24)" fill="none" stroke="#707070" stroke-width="1"/>
      </g>
      <g transform="translate(0 1406.5)">
        <line id="선_1-66" data-name="선 1" x2="1200" transform="translate(0 24)" fill="none" stroke="#707070" stroke-width="1"/>
      </g>
      <g transform="translate(0 1428.5)">
        <line id="선_1-67" data-name="선 1" x2="1200" transform="translate(0 24)" fill="none" stroke="#707070" stroke-width="1"/>
      </g>
      <g transform="translate(0 1450.5)">
        <line id="선_1-68" data-name="선 1" x2="1200" transform="translate(0 24)" fill="none" stroke="#707070" stroke-width="1"/>
      </g>
      <g transform="translate(0 1472.5)">
        <line id="선_1-69" data-name="선 1" x2="1200" transform="translate(0 24)" fill="none" stroke="#707070" stroke-width="1"/>
      </g>
      <g transform="translate(0 1494.5)">
        <line id="선_1-70" data-name="선 1" x2="1200" transform="translate(0 24)" fill="none" stroke="#707070" stroke-width="1"/>
      </g>
      <g transform="translate(0 1516.5)">
        <line id="선_1-71" data-name="선 1" x2="1200" transform="translate(0 24)" fill="none" stroke="#707070" stroke-width="1"/>
      </g>
      <g transform="translate(0 1538.5)">
        <line id="선_1-72" data-name="선 1" x2="1200" transform="translate(0 24)" fill="none" stroke="#707070" stroke-width="1"/>
      </g>
      <g transform="translate(0 1560.5)">
        <line id="선_1-73" data-name="선 1" x2="1200" transform="translate(0 24)" fill="none" stroke="#707070" stroke-width="1"/>
      </g>
      <g transform="translate(0 1582.5)">
        <line id="선_1-74" data-name="선 1" x2="1200" transform="translate(0 24)" fill="none" stroke="#707070" stroke-width="1"/>
      </g>
      <g transform="translate(0 1604.5)">
        <line id="선_1-75" data-name="선 1" x2="1200" transform="translate(0 24)" fill="none" stroke="#707070" stroke-width="1"/>
      </g>
      <g transform="translate(0 1626.5)">
        <line id="선_1-76" data-name="선 1" x2="1200" transform="translate(0 24)" fill="none" stroke="#707070" stroke-width="1"/>
      </g>
      <g transform="translate(0 1648.5)">
        <line id="선_1-77" data-name="선 1" x2="1200" transform="translate(0 24)" fill="none" stroke="#707070" stroke-width="1"/>
      </g>
      <g transform="translate(0 1670.5)">
        <line id="선_1-78" data-name="선 1" x2="1200" transform="translate(0 24)" fill="none" stroke="#707070" stroke-width="1"/>
      </g>
      <g transform="translate(0 1692.5)">
        <line id="선_1-79" data-name="선 1" x2="1200" transform="translate(0 24)" fill="none" stroke="#707070" stroke-width="1"/>
      </g>
      <g transform="translate(0 1714.5)">
        <line id="선_1-80" data-name="선 1" x2="1200" transform="translate(0 24)" fill="none" stroke="#707070" stroke-width="1"/>
      </g>
      <g transform="translate(0 1736.5)">
        <line id="선_1-81" data-name="선 1" x2="1200" transform="translate(0 24)" fill="none" stroke="#707070" stroke-width="1"/>
      </g>
      <g transform="translate(0 1758.5)">
        <line id="선_1-82" data-name="선 1" x2="1200" transform="translate(0 24)" fill="none" stroke="#707070" stroke-width="1"/>
      </g>
      <g transform="translate(0 1780.5)">
        <line id="선_1-83" data-name="선 1" x2="1200" transform="translate(0 24)" fill="none" stroke="#707070" stroke-width="1"/>
      </g>
      <g transform="translate(0 1802.5)">
        <line id="선_1-84" data-name="선 1" x2="1200" transform="translate(0 24)" fill="none" stroke="#707070" stroke-width="1"/>
      </g>
      <g transform="translate(0 1824.5)">
        <line id="선_1-85" data-name="선 1" x2="1200" transform="translate(0 24)" fill="none" stroke="#707070" stroke-width="1"/>
      </g>
      <g transform="translate(0 1846.5)">
        <line id="선_1-86" data-name="선 1" x2="1200" transform="translate(0 24)" fill="none" stroke="#707070" stroke-width="1"/>
      </g>
      <g transform="translate(0 1868.5)">
        <line id="선_1-87" data-name="선 1" x2="1200" transform="translate(0 24)" fill="none" stroke="#707070" stroke-width="1"/>
      </g>
      <g transform="translate(0 1890.5)">
        <line id="선_1-88" data-name="선 1" x2="1200" transform="translate(0 24)" fill="none" stroke="#707070" stroke-width="1"/>
      </g>
      <g transform="translate(0 1912.5)">
        <line id="선_1-89" data-name="선 1" x2="1200" transform="translate(0 24)" fill="none" stroke="#707070" stroke-width="1"/>
      </g>
      <g transform="translate(0 1934.5)">
        <line id="선_1-90" data-name="선 1" x2="1200" transform="translate(0 24)" fill="none" stroke="#707070" stroke-width="1"/>
      </g>
      <g transform="translate(0 1956.5)">
        <line id="선_1-91" data-name="선 1" x2="1200" transform="translate(0 24)" fill="none" stroke="#707070" stroke-width="1"/>
      </g>
      <g transform="translate(0 1978.5)">
        <line id="선_1-92" data-name="선 1" x2="1200" transform="translate(0 24)" fill="none" stroke="#707070" stroke-width="1"/>
      </g>
      <g transform="translate(0 2000.5)">
        <line id="선_1-93" data-name="선 1" x2="1200" transform="translate(0 24)" fill="none" stroke="#707070" stroke-width="1"/>
      </g>
      <g transform="translate(0 2022.5)">
        <line id="선_1-94" data-name="선 1" x2="1200" transform="translate(0 24)" fill="none" stroke="#707070" stroke-width="1"/>
      </g>
      <g transform="translate(0 2044.5)">
        <line id="선_1-95" data-name="선 1" x2="1200" transform="translate(0 24)" fill="none" stroke="#707070" stroke-width="1"/>
      </g>
      <g transform="translate(0 2066.5)">
        <line id="선_1-96" data-name="선 1" x2="1200" transform="translate(0 24)" fill="none" stroke="#707070" stroke-width="1"/>
      </g>
      <g transform="translate(0 2088.5)">
        <line id="선_1-97" data-name="선 1" x2="1200" transform="translate(0 24)" fill="none" stroke="#707070" stroke-width="1"/>
      </g>
      <g transform="translate(0 2110.5)">
        <line id="선_1-98" data-name="선 1" x2="1200" transform="translate(0 24)" fill="none" stroke="#707070" stroke-width="1"/>
      </g>
      <g transform="translate(0 2132.5)">
        <line id="선_1-99" data-name="선 1" x2="1200" transform="translate(0 24)" fill="none" stroke="#707070" stroke-width="1"/>
      </g>
      <g transform="translate(0 2154.5)">
        <line id="선_1-100" data-name="선 1" x2="1200" transform="translate(0 24)" fill="none" stroke="#707070" stroke-width="1"/>
      </g>
      <g transform="translate(0 2176.5)">
        <line id="선_1-101" data-name="선 1" x2="1200" transform="translate(0 24)" fill="none" stroke="#707070" stroke-width="1"/>
      </g>
      <g transform="translate(0 2198.5)">
        <line id="선_1-102" data-name="선 1" x2="1200" transform="translate(0 24)" fill="none" stroke="#707070" stroke-width="1"/>
      </g>
      <g transform="translate(0 2220.5)">
        <line id="선_1-103" data-name="선 1" x2="1200" transform="translate(0 24)" fill="none" stroke="#707070" stroke-width="1"/>
      </g>
      <g transform="translate(0 2242.5)">
        <line id="선_1-104" data-name="선 1" x2="1200" transform="translate(0 24)" fill="none" stroke="#707070" stroke-width="1"/>
      </g>
    </g>
    <g id="W-box">
      <g id="사각형_11" data-name="사각형 11" transform="translate(100 241)" fill="#e2e2e2" stroke="#707070" stroke-width="1">
        <rect width="1000" height="1391" stroke="none"/>
        <rect x="0.5" y="0.5" width="999" height="1390" fill="none"/>
      </g>
      <line id="선_11" data-name="선 11" x2="837" transform="translate(162 381)" fill="none" stroke="#707070" stroke-width="1"/>
      <text id="제목" transform="translate(191 322)" font-size="31" font-family="NanumGothic"><tspan x="-29.14" y="0">제목</tspan></text>
      <text id="자유롭게_글_쓰기" data-name="자유롭게 글 쓰기" transform="translate(251 446)" font-size="25" font-family="NanumGothic"><tspan x="-89.25" y="0">자유롭게 글 쓰기</tspan></text>
    </g>
    <g id="Toolbar">
      <text id="B" transform="translate(408 233)" font-size="15" font-family="NanumGothic"><tspan x="-4.545" y="0">B</tspan></text>
      <g id="c-3">
        <text id="_15" data-name="15" transform="translate(319 233)" font-size="15" font-family="NanumGothic"><tspan x="-9.09" y="0">15</tspan></text>
        <path id="Icon_ionic-ios-arrow-down" data-name="Icon ionic-ios-arrow-down" d="M15.191,20.328,22,11.724a1.1,1.1,0,0,1,1.817,0,1.958,1.958,0,0,1,0,2.3L16.1,23.773a1.1,1.1,0,0,1-1.774.047L6.563,14.032a1.953,1.953,0,0,1,0-2.3,1.1,1.1,0,0,1,1.817,0Z" transform="translate(340.813 211.25)" fill="#707070"/>
      </g>
      <g id="c-2">
        <text id="나눔고딕" transform="translate(219 233)" font-size="15" font-family="NanumGothic"><tspan x="-28.2" y="0">나눔고딕</tspan></text>
        <path id="Icon_ionic-ios-arrow-down-2" data-name="Icon ionic-ios-arrow-down" d="M15.191,20.328,22,11.724a1.1,1.1,0,0,1,1.817,0,1.958,1.958,0,0,1,0,2.3l-3.535,4.468L16.1,23.773a1.1,1.1,0,0,1-1.774.047L6.563,14.032a1.953,1.953,0,0,1,0-2.3,1.1,1.1,0,0,1,1.817,0Z" transform="translate(260.813 211.25)" fill="#707070"/>
      </g>
      <g id="c-1">
        <text id="본문" transform="translate(114 233)" font-size="15" font-family="NanumGothic"><tspan x="-14.1" y="0">본문</tspan></text>
        <path id="Icon_ionic-ios-arrow-down-3" data-name="Icon ionic-ios-arrow-down" d="M15.191,20.328,22,11.724a1.1,1.1,0,0,1,1.817,0,1.958,1.958,0,0,1,0,2.3L16.1,23.773a1.1,1.1,0,0,1-1.774.047L6.563,14.032a1.953,1.953,0,0,1,0-2.3,1.1,1.1,0,0,1,1.817,0Z" transform="translate(141.813 211.25)" fill="#707070"/>
      </g>
      <line id="선_4" data-name="선 4" y2="18" transform="translate(393 219)" fill="none" stroke="#707070" stroke-width="1"/>
      <line id="선_7" data-name="선 7" y2="18" transform="translate(595 219)" fill="none" stroke="#707070" stroke-width="1"/>
      <line id="선_8" data-name="선 8" y2="18" transform="translate(740 219)" fill="none" stroke="#707070" stroke-width="1"/>
      <line id="선_9" data-name="선 9" y2="18" transform="translate(898 219)" fill="none" stroke="#707070" stroke-width="1"/>
      <line id="선_10" data-name="선 10" y2="18" transform="translate(999 219)" fill="none" stroke="#707070" stroke-width="1"/>
      <g id="line-1">
        <line id="선_5" data-name="선 5" x2="1000" transform="translate(100 214)" fill="none" stroke="#707070" stroke-width="1"/>
        <line id="선_6" data-name="선 6" x2="1000" transform="translate(100 241)" fill="none" stroke="#707070" stroke-width="1"/>
      </g>
    </g>
    <g id="record">
      <text id="저장" transform="translate(952 165)" font-size="31" font-family="NanumGothic"><tspan x="-29.14" y="0">저장</tspan></text>
      <text id="기록" transform="translate(1051 165)" font-size="31" font-family="NanumGothic"><tspan x="-29.14" y="0">기록</tspan></text>
      <text id="스터디_기록하기" data-name="스터디 기록하기" transform="translate(206 165)" font-size="31" font-family="NanumGothic"><tspan x="-106.33" y="0">스터디 기록하기</tspan></text>
    </g>
    <g id="Header">
      <g id="Logo">
        <g id="사각형_2" data-name="사각형 2" transform="translate(101 2)" fill="#fff" stroke="#707070" stroke-width="1">
          <rect width="290" height="63" stroke="none"/>
          <rect x="0.5" y="0.5" width="289" height="62" fill="none"/>
        </g>
        <g id="구성_요소_1_152" data-name="구성 요소 1 – 152" transform="translate(207 7)">
          <g id="그룹_2" data-name="그룹 2" transform="translate(-210 -6)">
            <g id="다각형_1" data-name="다각형 1" transform="translate(210 24)" fill="#fff">
              <path d="M 34.3819694519043 35.50000381469727 L 1.618029952049255 35.50000381469727 C 1.366430044174194 35.50000381469727 1.236780047416687 35.33417510986328 1.192710041999817 35.26287460327148 C 1.148650050163269 35.19157409667969 1.058300018310547 35.00144195556641 1.170819997787476 34.77638244628906 L 17.55278015136719 2.012463808059692 C 17.63932037353516 1.839393734931946 17.80649948120117 1.736063718795776 18 1.736063718795776 C 18.19350051879883 1.736063718795776 18.36067962646484 1.839393734931946 18.44721984863281 2.012463808059692 L 34.82918167114258 34.77639389038086 C 34.94169998168945 35.00144195556641 34.85136032104492 35.19157409667969 34.80728912353516 35.26287460327148 C 34.76322937011719 35.33417510986328 34.63357925415039 35.50000381469727 34.3819694519043 35.50000381469727 Z" stroke="none"/>
              <path d="M 18 2.236064910888672 L 1.618030548095703 35.00000381469727 L 34.38196182250977 34.99999237060547 L 18.00000953674316 2.236072540283203 C 18.00000762939453 2.236068725585938 18.00000953674316 2.236068725585938 18 2.236064910888672 M 18 1.236064910888672 C 18.35508155822754 1.236064910888672 18.71016502380371 1.420330047607422 18.89443016052246 1.788852691650391 L 35.27639007568359 34.55278396606445 C 35.60884094238281 35.21769332885742 35.12535095214844 36.00000381469727 34.3819694519043 36.00000381469727 L 1.618030548095703 36.00000381469727 C 0.8746490478515625 36.00000381469727 0.3911514282226562 35.21769332885742 0.7236099243164062 34.55278396606445 L 17.10556983947754 1.788852691650391 C 17.28983497619629 1.420330047607422 17.64491844177246 1.236064910888672 18 1.236064910888672 Z" stroke="none" fill="#707070"/>
            </g>
            <g id="다각형_2" data-name="다각형 2" transform="translate(233 6)" fill="#fff">
              <path d="M 50.76393127441406 53.50000762939453 L 3.236069917678833 53.50000762939453 C 2.712399959564209 53.50000762939453 2.235399961471558 53.23405838012695 1.960090041160583 52.78860092163086 C 1.68478000164032 52.3431396484375 1.660230040550232 51.79756927490234 1.894420027732849 51.32918930053711 L 25.65834999084473 3.801319360733032 C 25.91795921325684 3.282109260559082 26.41950988769531 2.972139358520508 27 2.972139358520508 C 27.58048057556152 2.972139358520508 28.08202934265137 3.282109260559082 28.34164047241211 3.801319360733032 L 52.1055793762207 51.32918930053711 C 52.33977127075195 51.79756927490234 52.31521987915039 52.3431510925293 52.03990936279297 52.78860092163086 C 51.76459884643555 53.23405838012695 51.28760147094727 53.50000762939453 50.76393127441406 53.50000762939453 Z" stroke="none"/>
              <path d="M 26.99999046325684 3.472129821777344 C 26.61300086975098 3.472129821777344 26.27864074707031 3.678779602050781 26.10556983947754 4.024917602539062 L 2.341640472412109 51.55278778076172 C 2.116600036621094 52.00286865234375 2.297279357910156 52.38312911987305 2.385410308837891 52.52573013305664 C 2.473541259765625 52.66832733154297 2.732860565185547 53.00000762939453 3.236068725585938 53.00000762939453 L 50.76393127441406 53.00000762939453 C 51.26713943481445 53.00000762939453 51.52645111083984 52.66833877563477 51.61457824707031 52.52573776245117 C 51.70270919799805 52.38314056396484 51.88339996337891 52.00288009643555 51.65834808349609 51.55278778076172 L 27.89443016052246 4.024929046630859 C 27.72134971618652 3.678779602050781 27.3869800567627 3.472129821777344 26.99999046325684 3.472129821777344 M 26.9999942779541 2.472133636474609 C 27.71015930175781 2.472133636474609 28.42032432556152 2.840660095214844 28.78885078430176 3.577709197998047 L 52.55278015136719 51.1055793762207 C 53.21768951416016 52.43537902832031 52.25069046020508 54.00000762939453 50.76393127441406 54.00000762939453 L 3.236068725585938 54.00000762939453 C 1.749298095703125 54 0.7823104858398438 52.43537902832031 1.447208404541016 51.1055793762207 L 25.21113967895508 3.577709197998047 C 25.57966423034668 2.840660095214844 26.28982925415039 2.472133636474609 26.9999942779541 2.472133636474609 Z" stroke="none" fill="#707070"/>
            </g>
          </g>
        </g>
      </g>
      <g id="Gnb">
        <text id="내_프로필" data-name="내 프로필" transform="translate(1054 40)" font-size="21" font-family="NanumGothic"><tspan x="-42.42" y="0">내 프로필</tspan></text>
        <g id="P-img">
          <g id="타원_6" data-name="타원 6" transform="translate(919)" fill="#fff" stroke="#707070" stroke-width="1">
            <circle cx="32.5" cy="32.5" r="32.5" stroke="none"/>
            <circle cx="32.5" cy="32.5" r="32" fill="none"/>
          </g>
          <g id="그룹_2-2" data-name="그룹 2" transform="translate(724.267 14.786)">
            <g id="다각형_1-2" data-name="다각형 1" transform="translate(209.733 14.214)" fill="#fff">
              <path d="M 14.3819694519043 15.50000286102295 L 1.618029475212097 15.50000286102295 C 1.366429567337036 15.50000286102295 1.236779570579529 15.33417320251465 1.192709565162659 15.26287269592285 C 1.148649573326111 15.19157314300537 1.058299541473389 15.00144290924072 1.170819520950317 14.77638244628906 L 7.552779674530029 2.012462854385376 C 7.63931941986084 1.839392781257629 7.806499481201172 1.73606276512146 7.999999523162842 1.73606276512146 C 8.193499565124512 1.73606276512146 8.360679626464844 1.839392781257629 8.447219848632812 2.012462854385376 L 14.82917976379395 14.77639293670654 C 14.94169998168945 15.00144290924072 14.85134983062744 15.19157314300537 14.80728912353516 15.26287269592285 C 14.76321983337402 15.33417320251465 14.63356971740723 15.50000286102295 14.3819694519043 15.50000286102295 Z" stroke="none"/>
              <path d="M 7.999999523162842 2.236063003540039 L 1.618029594421387 15.00000286102295 L 14.38195991516113 14.99999237060547 L 8.000009536743164 2.236072540283203 C 8.000007629394531 2.236068725585938 8.000005722045898 2.236063957214355 7.999999523162842 2.236063003540039 M 7.999999523162842 1.236064910888672 C 8.355081558227539 1.236064910888672 8.710165023803711 1.420328140258789 8.894430160522461 1.788852691650391 L 15.27638912200928 14.55278301239014 C 15.60883903503418 15.21768283843994 15.1253490447998 16.00000190734863 14.38195991516113 16.00000190734863 L 1.618029594421387 16.00000190734863 C 0.8746490478515625 16.00000190734863 0.3911590576171875 15.21768283843994 0.7236099243164062 14.55278301239014 L 7.105569839477539 1.788852691650391 C 7.289834976196289 1.420328140258789 7.644917488098145 1.236064910888672 7.999999523162842 1.236064910888672 Z" stroke="none" fill="#707070"/>
            </g>
            <g id="다각형_2-2" data-name="다각형 2" transform="translate(220.733 6.214)" fill="#fff">
              <path d="M 20.76392936706543 23.5000057220459 L 3.236069917678833 23.5000057220459 C 2.712399959564209 23.5000057220459 2.235399961471558 23.23405456542969 1.960090041160583 22.78859519958496 C 1.68478000164032 22.3431453704834 1.660230040550232 21.79756546020508 1.894420027732849 21.32918548583984 L 10.65835952758789 3.801315546035767 C 10.91796016693115 3.282105445861816 11.41950988769531 2.972135543823242 12 2.972135543823242 C 12.58049011230469 2.972135543823242 13.08203983306885 3.282105445861816 13.34164047241211 3.801315546035767 L 22.1055793762207 21.32918548583984 C 22.33976936340332 21.79756546020508 22.31521987915039 22.3431453704834 22.03990936279297 22.78859519958496 C 21.76460075378418 23.23405456542969 21.28759956359863 23.5000057220459 20.76392936706543 23.5000057220459 Z" stroke="none"/>
              <path d="M 12 3.472126007080078 C 11.61301040649414 3.472126007080078 11.27865028381348 3.678775787353516 11.10558032989502 4.02491569519043 L 2.341640472412109 21.55278587341309 C 2.116600036621094 22.00286483764648 2.297279357910156 22.38312530517578 2.385410308837891 22.52572631835938 C 2.473539352416992 22.66832542419434 2.73284912109375 22.99999618530273 3.23607063293457 22.99999618530273 L 20.76392936706543 22.99999618530273 C 21.26715087890625 22.99999618530273 21.52646064758301 22.66832542419434 21.61458969116211 22.52572631835938 C 21.70272064208984 22.38312530517578 21.88339996337891 22.00286483764648 21.65835952758789 21.55278587341309 L 12.89441967010498 4.02491569519043 C 12.72134971618652 3.678775787353516 12.38698959350586 3.472126007080078 12 3.472126007080078 M 12 2.472129821777344 C 12.71016502380371 2.472129821777344 13.42033004760742 2.840656280517578 13.78884983062744 3.577705383300781 L 22.55278968811035 21.10557556152344 C 23.21768951416016 22.43537521362305 22.25069999694824 23.99999618530273 20.76392936706543 23.99999618530273 L 3.23607063293457 23.99999618530273 C 1.749300003051758 23.99999618530273 0.7823104858398438 22.43537521362305 1.447210311889648 21.10557556152344 L 10.21115016937256 3.577705383300781 C 10.57966995239258 2.840656280517578 11.28983497619629 2.472129821777344 12 2.472129821777344 Z" stroke="none" fill="#707070"/>
            </g>
          </g>
        </g>
      </g>
    </g>
  </g>
</svg>
